# xmcd
#
# Track frame offsets: 
#        150
#        27943
#        73974
#        103652
#        133544
#        174789
#        224658
#        271328
#        288952
#
# Disc length: 4137 seconds
#
# Revision: 4
# Processed by: cddbd v1.5.2PL0 Copyright (c) Steve Scherf et al.
# Submitted via: ExactAudioCopyFreeDBPlugin 1.0
#
DISCID=87102709
DTITLE=The Cinematic Orchestra - Every Day
DYEAR=2002
DGENRE=Nu Jazz
TTITLE0=All That You Give (feat. Fontella Bass)
TTITLE1=Burn Out
TTITLE2=Flite
TTITLE3=Evolution (feat. Fontella Bass)
TTITLE4=Man With the Movie Camera
TTITLE5=All Things to All Men (feat. Roots Manuva)
TTITLE6=Everyday
TTITLE7=Oregon
TTITLE8=Horizon (feat. Niara Scarlett)
EXTD=YEAR: 2002
EXTT0=
EXTT1=
EXTT2=
EXTT3=
EXTT4=
EXTT5=
EXTT6=
EXTT7=
EXTT8=
PLAYORDER=
